<?xml version="1.0" encoding="UTF-8" standalone="no"?>
<svg
   xmlns:svg="http://www.w3.org/2000/svg"
   xmlns="http://www.w3.org/2000/svg"
   version="1.1"
   width="711.75"
   height="129.4062"
   id="svg3846">
  <defs
     id="defs3848" />
  <g
     transform="translate(-98.410714,-453.37334)"
     id="layer1">
    <path
       d="m 100.24114,577.10344 116.72949,0 0,-115.22722 -116.72949,0 0,115.22722 z"
       id="path50"
       style="fill:#ffed00;fill-opacity:1;fill-rule:nonzero;stroke:none" />
    <path
       d="m 375.50446,454.37334 c -5.16436,0 -9.45164,1.956 -12.84375,5.875 -1.62421,1.8637 -2.69186,3.89476 -3.21875,6.09375 -0.33094,1.48051 -0.5,3.75569 -0.5,6.8125 l 0,4.65625 -4.59375,0 0,10.75 4.59375,0 0,26.03125 13.03125,0 0,-26.03125 9.125,0 0,-10.75 -9.125,0 0,-5.96875 c 0,-4.11495 1.51799,-6.15625 4.53125,-6.15625 1.14523,0 2.68216,0.40447 4.59375,1.21875 l 0,-11.25 c -1.6721,-0.85783 -3.53845,-1.28125 -5.59375,-1.28125 z m 27.46875,0 c -5.16001,0 -9.44729,1.956 -12.84375,5.875 -1.62421,1.8637 -2.72311,3.89476 -3.25,6.09375 -0.33094,1.48051 -0.5,3.75569 -0.5,6.8125 l 0,4.65625 -4.5625,0 0,10.75 4.5625,0 0,26.03125 13.0625,0 0,-26.03125 9.09375,0 0,-10.75 -9.09375,0 0,-5.96875 c 0,-4.11495 1.52232,-6.15625 4.53125,-6.15625 1.14958,0 2.6509,0.40447 4.5625,1.21875 l 0,-11.25 c -1.6721,-0.85783 -3.5072,-1.28125 -5.5625,-1.28125 z m 360.53125,0.6875 0,59.53125 13.0625,0 0,-15 14.28125,15 18.3125,0 -19.625,-19.78125 18.4375,-17 -17.84375,0 -13.5625,13.25 0,-36 -13.0625,0 z m -420.625,1.3125 c -2.00739,0 -3.71929,0.72365 -5.15625,2.15625 -1.43261,1.43261 -2.15625,3.14885 -2.15625,5.15625 0,2.0074 0.72364,3.71929 2.15625,5.15625 1.43696,1.43261 3.14886,2.15625 5.15625,2.15625 2.0074,0 3.71929,-0.72364 5.15625,-2.15625 1.43261,-1.43696 2.15625,-3.14885 2.15625,-5.15625 0,-2.0074 -0.72364,-3.72364 -2.15625,-5.15625 -1.43696,-1.4326 -3.14885,-2.15625 -5.15625,-2.15625 z m 119.59375,0 c -2.0074,0 -3.72364,0.72365 -5.15625,2.15625 -1.43261,1.43261 -2.15625,3.14885 -2.15625,5.15625 0,2.0074 0.72364,3.71929 2.15625,5.15625 1.43261,1.43261 3.14885,2.15625 5.15625,2.15625 2.00739,0 3.72364,-0.72364 5.15625,-2.15625 1.43696,-1.43696 2.15625,-3.14885 2.15625,-5.15625 0,-2.0074 -0.71929,-3.72364 -2.15625,-5.15625 -1.43261,-1.4326 -3.14886,-2.15625 -5.15625,-2.15625 z m -222.78125,4.15625 0,54.0625 14.0625,0 0,-20.8125 13.3125,20.8125 17.59375,0 -17,-22.15625 c 3.7274,-0.66624 6.66141,-2.46188 8.8125,-5.375 2.0074,-2.72588 3.03125,-6.03516 3.03125,-9.90625 0,-5.54756 -1.82254,-9.75977 -5.40625,-12.625 -3.29631,-2.67799 -7.76724,-4 -13.40625,-4 l -21,0 z m 380.34375,0 0,54.0625 21.65625,0 c 5.59113,0 10.1035,-1.10915 13.5,-3.3125 4.05837,-2.58219 6.0625,-6.48984 6.0625,-11.75 0,-8.22119 -3.66788,-12.82326 -11.03125,-13.78125 l 0,-0.125 c 3.97125,-2.0074 5.96875,-5.67964 5.96875,-11.03125 0,-9.37076 -5.35937,-14.0625 -16.0625,-14.0625 l -20.09375,0 z m -366.28125,10.75 1.34375,0 c 6.50118,0 9.75,2.26056 9.75,6.75 0,4.49814 -3.24883,6.71875 -9.75,6.71875 l -1.34375,0 0,-13.46875 z m 380.34375,0 1,0 c 2.53438,0 4.386,0.25436 5.53125,0.78125 1.76787,0.76204 2.65625,2.24286 2.65625,4.4375 0,3.4879 -2.56087,5.25 -7.625,5.25 l -1.5625,0 0,-10.46875 z m -330.4375,5.3125 c -5.35596,0 -9.78386,1.89555 -13.25,5.71875 -3.46614,3.82756 -5.1875,8.44424 -5.1875,13.84375 0,5.40385 1.74467,10.00595 5.25,13.78125 3.55322,3.919 8.02851,5.875 13.40625,5.875 5.2384,0 8.97979,-1.7767 11.1875,-5.3125 l 0,4.09375 13.03125,0 0,-36.78125 -13.03125,0 0,3.59375 c -2.72589,-3.20488 -6.52928,-4.8125 -11.40625,-4.8125 z m 126.53125,0 c -6.07445,0 -10.96522,1.73596 -14.71875,5.25 -3.75354,3.51404 -5.625,8.3318 -5.625,14.40625 0,6.16589 2.03105,10.99545 6.09375,14.53125 3.82319,3.34421 8.87791,5.03125 15.1875,5.03125 4.49379,0 8.40579,-1.03846 11.75,-3.09375 3.63596,-2.2469 5.96287,-5.42065 6.96875,-9.53125 l -12.53125,0 c -1.34116,2.2469 -3.42833,3.375 -6.25,3.375 -5.44741,0 -8.1875,-2.7401 -8.1875,-8.1875 l 27.46875,0 0,-1.34375 c 0,-6.30957 -1.7767,-11.31101 -5.3125,-14.96875 -3.53581,-3.65338 -8.48626,-5.46875 -14.84375,-5.46875 z m 63.6875,0 c -4.40234,0 -8.11172,1.05741 -11.125,3.15625 -3.39646,2.34705 -5.09375,5.62071 -5.09375,9.875 0,3.77965 1.43267,6.51974 4.25,8.1875 1.09731,0.62267 3.71215,1.43162 7.875,2.4375 2.81731,0.66622 4.21875,1.72364 4.21875,3.15625 0,0.91008 -0.45263,1.62936 -1.40625,2.15625 -0.76639,0.43109 -1.65473,0.625 -2.65625,0.625 -3.34856,0 -6.8036,-1.22801 -10.34375,-3.71875 l -4.71875,9.125 c 4.58957,2.82168 9.54004,4.21875 14.84375,4.21875 4.73327,0 8.70562,-1.06766 11.90625,-3.21875 3.6315,-2.48639 5.4375,-5.97932 5.4375,-10.46875 0,-5.8306 -3.56801,-9.47364 -10.6875,-10.90625 -2.05965,-0.4311 -3.25846,-0.68113 -3.59375,-0.78125 -1.52841,-0.57479 -2.28125,-1.38807 -2.28125,-2.4375 0,-0.81427 0.49848,-1.45851 1.5,-1.9375 0.76202,-0.38319 1.63577,-0.59375 2.59375,-0.59375 2.43414,0 4.78425,0.61937 7.03125,1.8125 l 4.375,-8.3125 c -3.49225,-1.58066 -7.53972,-2.375 -12.125,-2.375 z m 37.4375,0 c -6.07438,0 -11.00088,1.73596 -14.75,5.25 -3.7535,3.51404 -5.625,8.3318 -5.625,14.40625 0,6.16589 2.02675,10.99545 6.09375,14.53125 3.82325,3.34421 8.87362,5.03125 15.1875,5.03125 4.48937,0 8.437,-1.03846 11.78125,-3.09375 3.63163,-2.2469 5.936,-5.42065 6.9375,-9.53125 l -12.53125,0 c -1.33675,2.2469 -3.42837,3.375 -6.25,3.375 -5.44737,0 -8.1875,-2.7401 -8.1875,-8.1875 l 27.46875,0 0,-1.34375 c 0,-6.30957 -1.77237,-11.31101 -5.3125,-14.96875 -3.53588,-3.65337 -8.45938,-5.46875 -14.8125,-5.46875 z m 50.59375,0 c -5.1905,0 -9.1215,1.97061 -11.8125,5.9375 l 0,-4.71875 -13.0625,0 0,36.78125 13.0625,0 0,-19.0625 c 0,-5.6869 2.27087,-8.53125 6.8125,-8.53125 2.7695,0 4.56075,1.16168 5.375,3.5 0.33537,1.05378 0.5,3.09942 0.5,6.15625 l 0,17.9375 13.03125,0 0,-22.75 c 0,-10.18069 -4.62687,-15.25 -13.90625,-15.25 z m 101.875,0 c -5.356,0 -9.75263,1.89555 -13.21875,5.71875 -3.46625,3.82756 -5.21875,8.44424 -5.21875,13.84375 0,5.40385 1.776,10.00595 5.28125,13.78125 3.55325,3.919 7.99725,5.875 13.375,5.875 5.23838,0 8.97987,-1.7767 11.1875,-5.3125 l 0,4.09375 13.03125,0 0,-36.78125 -13.03125,0 0,3.59375 c -2.72587,-3.20488 -6.52925,-4.8125 -11.40625,-4.8125 z m 57.5625,0 c -5.19038,0 -9.1215,1.97061 -11.8125,5.9375 l 0,-4.71875 -13.0625,0 0,36.78125 13.0625,0 0,-19.0625 c 0,-5.6869 2.27075,-8.53125 6.8125,-8.53125 2.76937,0 4.56063,1.16167 5.375,3.5 0.33087,1.05377 0.5,3.09942 0.5,6.15625 l 0,17.9375 13.03125,0 0,-22.75 c 0,-10.18069 -4.63125,-15.25 -13.90625,-15.25 z m -405,1.21875 0,36.78125 13.0625,0 0,-36.78125 -13.0625,0 z m 119.59375,0 0,36.78125 13.0625,0 0,-36.78125 -13.0625,0 z m -25.09375,7.25 c 1.81581,0 3.42779,0.5182 4.8125,1.59375 1.38908,1.07555 2.22721,2.4675 2.5625,4.1875 l -15.125,0 c 0.80993,-3.8711 3.39991,-5.78125 7.75,-5.78125 z m 101.09375,0 c 1.81575,0 3.42787,0.5182 4.8125,1.59375 1.38475,1.07555 2.22725,2.4675 2.5625,4.1875 l -15.125,0 c 0.81,-3.8711 3.39987,-5.78125 7.75,-5.78125 z m -224.84375,2.84375 c 2.58219,0 4.61836,0.80816 6.125,2.40625 1.50664,1.60679 2.25,3.5948 2.25,5.9375 0,2.39059 -0.74336,4.35607 -2.25,5.90625 -1.50664,1.55889 -3.54281,2.3125 -6.125,2.3125 -2.58219,0 -4.61836,-0.75361 -6.125,-2.3125 -1.50229,-1.55018 -2.28125,-3.51566 -2.28125,-5.90625 0,-2.3427 0.77896,-4.33071 2.28125,-5.9375 1.50664,-1.59809 3.54281,-2.40625 6.125,-2.40625 z m 380.125,0 c 2.58213,0 4.61837,0.80816 6.125,2.40625 1.50663,1.60679 2.28125,3.5948 2.28125,5.9375 0,2.39059 -0.77462,4.35608 -2.28125,5.90625 -1.50663,1.55889 -3.54287,2.3125 -6.125,2.3125 -2.58225,0 -4.61837,-0.75361 -6.125,-2.3125 -1.50238,-1.55017 -2.25,-3.51566 -2.25,-5.90625 0,-2.3427 0.74762,-4.33071 2.25,-5.9375 1.50663,-1.59809 3.54275,-2.40625 6.125,-2.40625 z m -53.125,4.3125 1.4375,0 c 3.82325,0 6.33375,0.16906 7.53125,0.5 2.67787,0.77074 4,2.55332 4,5.375 0,2.57782 -1.32213,4.27947 -4,5.09375 -1.43262,0.42674 -3.84337,0.65625 -7.1875,0.65625 l -1.78125,0 0,-11.625 z m 17.9375,32.34375 0,56.125 10.1875,0 0,-56.125 -10.1875,0 z m -142.46875,4.96875 c -3.29638,0 -6.0625,2.6768 -6.0625,5.96875 0,3.29631 2.8445,5.90625 6.0625,5.90625 3.29625,0 5.96875,-2.60994 5.96875,-5.90625 0,-3.29195 -2.6725,-5.96875 -5.96875,-5.96875 z m -269.90625,0.0937 0,51.0625 10.875,0 0,-51.0625 -10.875,0 z m 63.875,6.5625 0,11.1875 -3.6875,0 0,8.75 3.6875,0 0,24.5625 10.1875,0 0,-24.5625 6.5,0 0,-8.75 -6.5,0 0,-11.1875 -10.1875,0 z m 179.53125,0 0,11.1875 -3.6875,0 0,8.75 3.6875,0 0,24.5625 10.1875,0 0,-24.5625 6.5,0 0,-8.75 -6.5,0 0,-11.1875 -10.1875,0 z m -202.125,10.28125 c -4.13673,0 -8.36195,1.75416 -9.96875,5.8125 l 0,-4.90625 -10.1875,0 0,33.3125 10.1875,0 0,-17.15625 c 0,-4.67231 1.29594,-8.5 6.65625,-8.5 4.9031,0 5.84375,2.99213 5.84375,7.28125 l 0,18.375 10.1875,0 0,-20.96875 c 0,-3.52274 -0.31434,-6.43114 -2.6875,-9.1875 -2.45155,-2.83474 -6.3561,-4.0625 -10.03125,-4.0625 z m 60.34375,0 c -10.64661,0 -17.84375,6.87312 -17.84375,17.59375 0,10.95142 7.49811,17.71875 18.21875,17.71875 7.89025,0 13.87633,-3.5247 16.9375,-10.875 l -9.40625,-1.46875 c -1.76355,2.83474 -4.21189,4.6875 -7.65625,4.6875 -4.9031,0 -7.45671,-3.53107 -7.6875,-8.125 l 24.84375,0 0,-1.625 c 0,-10.79901 -6.45484,-17.90625 -17.40625,-17.90625 z m 44.28125,0 c -3.8319,0 -6.96674,1.74698 -9.1875,4.8125 l 0,-3.90625 -10.1875,0 0,33.3125 10.1875,0 0,-15.90625 c 0,-5.20792 1.60409,-9.28125 7.5,-9.28125 1.83758,0 3.20571,0.53459 4.8125,1.375 l 1.46875,-9.5 c -1.45439,-0.5356 -2.98696,-0.90625 -4.59375,-0.90625 z m 29.625,0 c -4.13673,0 -8.33071,1.75416 -9.9375,5.8125 l 0,-4.90625 -10.1875,0 0,33.3125 10.1875,0 0,-17.15625 c 0,-4.67231 1.29594,-8.5 6.65625,-8.5 4.9031,0 5.8125,2.99212 5.8125,7.28125 l 0,18.375 10.1875,0 0,-20.96875 c 0,-3.52274 -0.28307,-6.43114 -2.65625,-9.1875 -2.45155,-2.83474 -6.38735,-4.0625 -10.0625,-4.0625 z m 37,0 c -10.03264,0 -17,7.79191 -17,17.59375 0,10.3418 6.43176,17.71875 17,17.71875 3.98431,0 7.82585,-1.84841 10.125,-5.21875 l 0,4.125 10.25,0 0,-33.3125 -10.25,0 0,4.28125 c -2.52557,-3.44871 -5.83588,-5.1875 -10.125,-5.1875 z m 87.9375,0 c -10.799,0 -18.375,6.58368 -18.375,17.6875 0,11.0298 7.48225,17.625 18.28125,17.625 10.725,0 18.25,-6.84571 18.25,-17.71875 0,-10.8774 -7.43563,-17.59375 -18.15625,-17.59375 z m 45.65625,0 c -4.13238,0 -8.362,1.75416 -9.96875,5.8125 l 0,-4.90625 -10.1875,0 0,33.3125 10.1875,0 0,-17.15625 c 0,-4.67231 1.296,-8.5 6.65625,-8.5 4.90313,0 5.84375,2.99212 5.84375,7.28125 l 0,18.375 10.1875,0 0,-20.96875 c 0,-3.52274 -0.31437,-6.43114 -2.6875,-9.1875 -2.45163,-2.83474 -6.35175,-4.0625 -10.03125,-4.0625 z m 37,0 c -10.03263,0 -17.03125,7.79191 -17.03125,17.59375 0,10.3418 6.46312,17.71875 17.03125,17.71875 3.98438,0 7.79462,-1.84841 10.09375,-5.21875 l 0,4.125 10.28125,0 0,-33.3125 -10.28125,0 0,4.28125 c -2.5255,-3.44871 -5.80462,-5.1875 -10.09375,-5.1875 z m -118.34375,0.90625 0,33.3125 10.1875,0 0,-33.3125 -10.1875,0 z m -163,6.21875 c 4.13673,0 6.27256,2.2037 7.34375,6.03125 l -14.53125,0 c 0.91879,-3.82755 3.12916,-6.03125 7.1875,-6.03125 z m 112.75,1.90625 c 4.82907,0 8.1875,3.81616 8.1875,8.5625 0,4.7507 -3.2844,8.65625 -8.1875,8.65625 -4.82036,0 -8.34375,-3.90555 -8.34375,-8.65625 0,-4.74634 3.52339,-8.5625 8.34375,-8.5625 z m 85.78125,0 c 5.282,0 7.8125,3.67913 7.8125,8.65625 0,4.9031 -2.683,8.5625 -7.8125,8.5625 -4.9815,0 -7.71875,-3.89018 -7.71875,-8.5625 0,-4.82472 2.58925,-8.65625 7.71875,-8.65625 z m 84.78125,0 c 4.82475,0 8.21875,3.81616 8.21875,8.5625 0,4.75069 -3.31563,8.65625 -8.21875,8.65625 -4.82475,0 -8.34375,-3.90556 -8.34375,-8.65625 0,-4.74634 3.519,-8.5625 8.34375,-8.5625 z M 99.410714,460.0921 l 0,120.28125 120.249996,0.0625 -0.0312,-120.34375 -120.218746,0 z m 3.218746,3.40625 113.625,0 -0.0937,113.59375 -113.53125,-0.0312 0,-113.5625 z m 24.25,7.625 c -3.60396,-0.15677 -7.72309,1.07787 -11.84375,5.09375 -8.39972,8.1907 -9.09375,18.65245 -9.09375,21.6875 l 4.59375,-4.71875 17.65625,17.6875 4.9375,-4.90625 0,-11.625 5.03125,5.03125 0,14.0625 7.0625,7.03125 -35.875,35.84375 14.15625,14.125 35.84375,-35.71875 36.1875,36.125 14.15625,-14.15625 -36.21875,-36.21875 7.0625,-7 0,-14.09375 5.03125,-5.03125 0,11.6875 4.9375,4.84375 17.65625,-17.6875 4.78125,4.71875 c 0,-3.04375 -0.87718,-13.4968 -9.28125,-21.6875 -9.4143,-9.17916 -18.84969,-3.8022 -22.09375,-0.5625 l -17.0625,17.0625 4.25,4.21875 -9.40625,9.375 -9.40625,-9.375 4.25,-4.21875 -17.0625,-17.0625 c -1.82723,-1.82233 -5.61633,-4.32969 -10.25,-4.53125 z"
       id="path206"
       style="fill:#1a1a18;fill-opacity:1;fill-rule:nonzero;stroke:none" />
  </g>
</svg>
