<?xml version="1.0" encoding="utf-8"?>
<!-- Generator: Adobe Illustrator 24.0.1, SVG Export Plug-In . SVG Version: 6.00 Build 0)  -->
<svg version="1.1" id="Layer_1" xmlns="http://www.w3.org/2000/svg" xmlns:xlink="http://www.w3.org/1999/xlink" x="0px" y="0px"
	 viewBox="0 0 263.23 120.09" style="enable-background:new 0 0 263.23 120.09;" xml:space="preserve">
<style type="text/css">
	.st0{opacity:0;fill:#FFFFFF;}
	.st1{fill:#CE5368;}
	.st2{fill:#2E318F;}
</style>
<rect class="st0" width="263.23" height="120.09"/>
<g>
	<g>
		<path class="st1" d="M59.01,32.13c0-4.94,4.01-8.95,8.95-8.95c4.95,0,8.96,4.01,8.96,8.95c0,4.94-4.01,8.94-8.96,8.94
			C63.02,41.07,59.01,37.07,59.01,32.13"/>
		<path class="st1" d="M82,64.95c0-4.94,4.01-8.94,8.95-8.94c4.94,0,8.95,4,8.95,8.94c0,4.94-4.01,8.95-8.95,8.95
			C86.01,73.9,82,69.89,82,64.95"/>
		<path class="st1" d="M35.91,64.95c0-4.94,4.01-8.94,8.96-8.94c4.94,0,8.96,4,8.96,8.94c0,4.94-4.02,8.95-8.96,8.95
			C39.92,73.9,35.91,69.89,35.91,64.95"/>
		<path class="st2" d="M97.66,35.91c0.99,0.63,1.88,1.4,2.66,2.31c-6.31,5.1-16.36,10.03-20.45,17.12
			c-4.16,7.19-3.42,17.89-4.85,28.84c-3.42,1.32-8.89,3.04-13.31,4.1c-1.14-9.31-0.74-23.07-4.55-29.67
			c-3.38-5.85-13.07-10.75-22.57-17.44c3.9-2.03,8.17-4.03,11.7-5.26C52.73,38.57,63.04,46.56,71,46.56
			C78.19,46.56,90.76,38.75,97.66,35.91"/>
		<path class="st2" d="M165.14,88.25V72.46c0,0,0.33,0.21,0.55,0.35c1.02,0.62,3.41,1.09,5.04,1.09c11.43,0,18.31-7.21,18.31-18.64
			c0-9.25-4.77-15.91-14.37-15.91c-3.94,0-6.87,1.36-8.98,2.92l-0.55,0.42V38.8c-2.9,0.16-7.08,0.84-10.14,1.63v47.82H165.14z
			 M169.36,65.94c-1.43,0-2.38,0-4.22-0.54V49.69c1.84-1.57,3.95-2.38,6.13-2.38c5.31,0,7.69,3.47,7.69,8.77
			C178.96,62.2,175.62,65.94,169.36,65.94"/>
		<path class="st2" d="M203.43,57.17c0,5.58,2.38,8.78,7.69,8.78c2.11,0,4.22-0.82,6.13-2.45V47.85h-3.74
			C207.38,47.85,203.43,51.04,203.43,57.17 M208.47,88.25c-4.29,0-9.6-0.54-13.07-2.38v-8.03h0.54c2.93,1.36,6.95,2.45,11.44,2.45
			c4.9,0,9.87-2.9,9.87-7.21v-2.51c0,0-0.44,0.32-0.54,0.4c-2.11,1.57-5.04,2.93-9.06,2.93c-9.33,0-14.36-6.39-14.36-15.71
			c0-11.9,7.96-18.3,19.94-18.3h14.09V70.7C227.33,82.4,220.18,88.25,208.47,88.25"/>
		<path class="st2" d="M126.51,73.9c4.22,0,7.69-1.36,9.81-3.47c0.04-0.05,0.13-0.14,0.13-0.14s0.04,0.09,0.07,0.14
			c1.36,2.45,4.02,3.47,7.29,3.47c1.57,0,4.77-0.27,6.4-0.81v-6.87h-2.18c-2.11,0-2.65-0.82-2.65-2.93V49.64
			c0-7.21-4.82-10.84-14.64-10.84c-3.68,0-8.24,0.54-12.46,2.11v8.03h0.55c3.2-1.63,6.6-2.17,9.53-2.17c4.29,0,6.95,1.09,6.95,4.83
			v1.02h-5.31c-7.97,0-15.18,2.92-15.18,10.88C114.8,70.16,119.84,73.9,126.51,73.9 M124.67,62.47c0-2.93,2.66-4.01,5.59-4.01h5.03
			v5.98c-1.43,0.96-3.54,1.77-5.58,1.77C126.78,66.21,124.67,65.4,124.67,62.47"/>
	</g>
</g>
</svg>
