<?xml version="1.0" encoding="utf-8"?>
<!-- Generator: Adobe Illustrator 25.4.1, SVG Export Plug-In . SVG Version: 6.00 Build 0)  -->
<svg version="1.1" id="Layer_1" xmlns="http://www.w3.org/2000/svg" xmlns:xlink="http://www.w3.org/1999/xlink" x="0px" y="0px"
	 viewBox="0 0 392 32" style="enable-background:new 0 0 392 32;" xml:space="preserve">
<style type="text/css">
	.st0{fill:#302353;}
	.st1{fill:#805CDD;}
</style>
<g>
	<path class="st0" d="M22.9,9.8l-4.5,1.3c-0.2,0.1-0.4-0.1-0.5-0.3c-0.2-0.7-0.6-1.3-1.1-1.9c-0.7-0.7-1.7-1-3.1-1
		c-1,0-1.9,0.3-2.6,0.8c-0.7,0.5-1,1.2-1,2c0,1.3,0.9,2.2,2.6,2.5l3.5,0.7c2.4,0.4,4.2,1.4,5.5,2.8c1.3,1.4,2,3.1,2,5
		c0,2.2-0.9,4.1-2.6,5.7c-1.7,1.6-4.1,2.5-7,2.5c-3.3,0-5.8-0.8-7.6-2.5c-1.7-1.6-2.7-3.4-3-5.5c0-0.2,0.1-0.3,0.2-0.4l4.7-1.1
		c0.2,0,0.3,0.1,0.4,0.2c0.2,1.1,0.7,2.1,1.5,2.9c0.9,0.8,2.2,1.3,3.9,1.3c1.1,0,2-0.3,2.7-0.7c0.7-0.5,1-1.2,1-2
		c0-0.7-0.2-1.2-0.7-1.7c-0.5-0.4-1.2-0.8-2-0.9l-3.5-0.7c-2.2-0.4-3.9-1.3-5.2-2.7c-1.3-1.4-1.9-3-1.9-4.9c0-2.4,0.9-4.4,2.7-6
		s4-2.4,6.5-2.4c1.5,0,2.9,0.2,4.1,0.6s2.2,1,2.9,1.7c0.7,0.7,1.3,1.4,1.7,2.2C22.7,8,23,8.7,23.2,9.4C23.2,9.6,23.1,9.8,22.9,9.8
		L22.9,9.8z"/>
	<path class="st0" d="M29.8,16.3c0-4,1.3-7.3,3.9-9.8c2.6-2.5,5.8-3.7,9.6-3.7s6.9,1.3,9.5,3.8c2.6,2.5,3.9,5.8,3.9,9.8
		s-1.3,7.2-3.9,9.7c-2.6,2.5-5.8,3.7-9.5,3.7c-3.8,0-6.9-1.2-9.6-3.7C31.1,23.6,29.8,20.3,29.8,16.3z M38,10.5
		c-1.5,1.4-2.2,3.3-2.2,5.8s0.7,4.5,2.2,5.8c1.5,1.3,3.2,2,5.2,2s3.7-0.7,5.2-2c1.5-1.3,2.2-3.3,2.2-5.8s-0.7-4.5-2.2-5.8
		c-1.5-1.4-3.2-2-5.2-2S39.5,9.1,38,10.5z"/>
	<path class="st0" d="M81.2,29.3H64.7c-0.1,0-0.2-0.1-0.2-0.2V3.6c0-0.1,0.1-0.2,0.2-0.2H70c0.1,0,0.2,0.1,0.2,0.2v20.2h11
		c0.1,0,0.2,0.1,0.2,0.2v5.1C81.4,29.2,81.3,29.3,81.2,29.3L81.2,29.3z"/>
	<path class="st0" d="M105.9,27.3c-1.9,1.7-4.4,2.6-7.4,2.6c-3,0-5.4-0.9-7.4-2.6c-1.9-1.7-2.9-4.2-2.9-7.3V3.6
		c0-0.1,0.1-0.2,0.2-0.2h5.3c0.1,0,0.2,0.1,0.2,0.2v15.9c0,1.5,0.4,2.7,1.2,3.5c0.8,0.8,1.9,1.2,3.3,1.2s2.5-0.4,3.3-1.2
		c0.8-0.8,1.2-2,1.2-3.5V3.6c0-0.1,0.1-0.2,0.2-0.2h5.3c0.1,0,0.2,0.1,0.2,0.2v16.3C108.8,23.1,107.8,25.5,105.9,27.3L105.9,27.3z"
		/>
	<path class="st0" d="M147,29.3h-5.3c-0.1,0-0.2-0.1-0.2-0.2v-17l-6.7,17.1c0,0.1-0.1,0.1-0.1,0.1h-4.5c-0.1,0-0.1,0-0.1-0.1
		l-6.7-16.9v16.8c0,0.1-0.1,0.2-0.2,0.2H118c-0.1,0-0.2-0.1-0.2-0.2V3.5c0-0.1,0.1-0.2,0.2-0.2h7.3c0.1,0,0.1,0,0.1,0.1l7.1,17.4
		l6.7-17.4c0-0.1,0.1-0.1,0.1-0.1h7.7c0.1,0,0.2,0.1,0.2,0.2v25.6C147.2,29.2,147.1,29.3,147,29.3L147,29.3z"/>
	<path class="st1" d="M173.2,29.3h-3.4c0,0-0.1,0-0.1-0.1V3.5c0,0,0-0.1,0.1-0.1h15.6c0,0,0.1,0,0.1,0.1v3.2c0,0,0,0.1-0.1,0.1
		h-12.1V15h11c0,0,0.1,0,0.1,0.1v3.2c0,0,0,0.1-0.1,0.1h-11L173.2,29.3C173.2,29.3,173.2,29.3,173.2,29.3L173.2,29.3z"/>
	<path class="st1" d="M197,29.3h-3.4c-0.1,0-0.1-0.1-0.1-0.1V3.5c0-0.1,0.1-0.1,0.1-0.1h3.4c0.1,0,0.1,0.1,0.1,0.1v25.7
		C197.1,29.2,197.1,29.3,197,29.3z"/>
	<path class="st1" d="M228.6,29.3H225c0,0,0,0,0,0l-14-21.1v21.1c0,0,0,0.1-0.1,0.1h-3.5c0,0-0.1,0-0.1-0.1V3.4c0,0,0-0.1,0.1-0.1
		h4.7c0,0,0,0,0,0l12.9,19.9V3.4c0,0,0-0.1,0.1-0.1h3.5c0,0,0.1,0,0.1,0.1L228.6,29.3C228.7,29.3,228.6,29.3,228.6,29.3L228.6,29.3z
		"/>
	<path class="st1" d="M256.8,29.2L254,22h-11.5l-2.7,7.2c0,0-0.1,0.1-0.1,0.1h-3.6c-0.1,0-0.1-0.1-0.1-0.2l10.2-25.7
		c0,0,0.1-0.1,0.1-0.1h4c0,0,0.1,0,0.1,0.1l10.2,25.7c0,0.1,0,0.2-0.1,0.2h-3.6C256.9,29.3,256.8,29.3,256.8,29.2L256.8,29.2z
		 M248.2,7.1l-4.4,11.6h8.9L248.2,7.1z"/>
	<path class="st1" d="M289.2,29.3h-3.6c0,0-0.1,0-0.1,0l-14-21.1v21c0,0,0,0.1-0.1,0.1h-3.4c0,0-0.1,0-0.1-0.1V3.5
		c0,0,0-0.1,0.1-0.1h4.7c0,0,0.1,0,0.1,0l12.9,19.8V3.5c0,0,0-0.1,0.1-0.1h3.4c0,0,0.1,0,0.1,0.1L289.2,29.3
		C289.3,29.2,289.3,29.3,289.2,29.3L289.2,29.3z"/>
	<path class="st1" d="M310.8,29.8c-3.5,0-6.6-1.2-9.1-3.7s-3.8-5.7-3.8-9.9c0-2.8,0.6-5.2,1.9-7.3c1.3-2.1,2.9-3.6,4.8-4.7
		c1.9-1,4-1.5,6.2-1.5c2.9,0,5.4,0.7,7.4,2.2c2,1.5,3.3,3.4,4,5.9c0,0.1,0,0.1-0.1,0.1l-3.1,1.1c-0.1,0-0.1,0-0.2-0.1
		c-0.5-1.9-1.4-3.4-2.8-4.4c-1.4-1.1-3.1-1.6-5.3-1.6c-2.5,0-4.7,0.9-6.5,2.7c-1.8,1.8-2.7,4.3-2.7,7.5s0.9,5.7,2.7,7.5
		c1.8,1.8,4,2.7,6.5,2.7c2.1,0,3.9-0.6,5.3-1.7c1.4-1.1,2.4-2.6,2.9-4.4c0-0.1,0.1-0.1,0.1-0.1l3,1.1c0.1,0,0.1,0.1,0.1,0.1
		c-0.7,2.5-2.1,4.4-4,5.9C316.1,29.1,313.7,29.8,310.8,29.8L310.8,29.8z"/>
	<path class="st1" d="M334.2,29.3h-3.4c-0.1,0-0.1,0-0.1-0.1V3.5c0-0.1,0-0.1,0.1-0.1h3.4c0.1,0,0.1,0,0.1,0.1v25.7
		C334.3,29.2,334.2,29.3,334.2,29.3z"/>
	<path class="st1" d="M362.4,29.2l-2.8-7.2h-11.5l-2.7,7.2c0,0,0,0-0.1,0h-3.7c0,0-0.1,0-0.1-0.1l10.3-25.8c0,0,0,0,0.1,0h4
		c0,0,0.1,0,0.1,0l10.3,25.8c0,0,0,0.1-0.1,0.1L362.4,29.2C362.5,29.3,362.5,29.3,362.4,29.2z M353.9,7.1l-4.4,11.6h8.9
		C358.4,18.7,353.9,7.1,353.9,7.1z"/>
	<path class="st1" d="M389.5,29.3h-15.8V3.5c0-0.1,0-0.1,0.1-0.1h3.4c0.1,0,0.1,0,0.1,0.1v22.5h12.2V29.3z"/>
</g>
</svg>
