<?xml version="1.0" encoding="UTF-8"?>
<svg id="Layer_1" data-name="Layer 1" xmlns="http://www.w3.org/2000/svg" viewBox="0 0 674.4 276.99">
  <defs>
    <style>
      .cls-1 {
        fill: #805cdd;
      }

      .cls-2 {
        fill: #302353;
      }
    </style>
  </defs>
  <path class="cls-2" d="m85.71,56.55l-12.32,3.47c-.57.16-1.16-.17-1.31-.73-.49-1.81-1.52-3.5-3.09-5.07-1.87-1.87-4.71-2.81-8.52-2.81-2.87,0-5.21.75-7.02,2.25-1.8,1.5-2.71,3.29-2.71,5.36,0,3.67,2.34,5.95,7.02,6.81l9.52,1.8c6.55,1.2,11.61,3.76,15.18,7.67,3.57,3.91,5.36,8.47,5.36,13.68,0,5.95-2.37,11.17-7.12,15.68-4.74,4.51-11.12,6.76-19.14,6.76-8.95,0-15.88-2.32-20.79-6.96-4.69-4.44-7.42-9.44-8.17-15.01-.06-.44.23-.86.67-.96l12.9-3.11c.46-.11.91.21.98.68.47,3.14,1.82,5.77,4.05,7.88,2.44,2.3,5.96,3.46,10.57,3.46,3.07,0,5.51-.68,7.32-2.05,1.8-1.37,2.71-3.16,2.71-5.36,0-1.8-.67-3.32-2-4.56-1.34-1.24-3.21-2.09-5.61-2.56l-9.72-1.8c-6.01-1.14-10.74-3.57-14.18-7.32-3.44-3.74-5.16-8.25-5.16-13.53,0-6.55,2.51-11.99,7.52-16.33,5.01-4.34,10.99-6.51,17.94-6.51,4.21,0,7.97.59,11.27,1.75,3.31,1.17,5.93,2.72,7.87,4.66,1.94,1.94,3.46,3.94,4.56,6.01.97,1.82,1.66,3.71,2.09,5.68.1.47-.19.93-.65,1.06Z"/>
  <path class="cls-2" d="m104.47,74.46c0-11.02,3.59-19.96,10.77-26.81,7.18-6.85,15.92-10.27,26.2-10.27s19.01,3.44,26.15,10.32c7.15,6.88,10.72,15.8,10.72,26.76s-3.57,19.86-10.72,26.71c-7.15,6.85-15.87,10.27-26.15,10.27s-19.02-3.42-26.2-10.27c-7.18-6.85-10.77-15.75-10.77-26.71Zm22.6-16.08c-4.11,3.71-6.16,9.04-6.16,15.98s2.05,12.26,6.16,15.93c4.11,3.67,8.9,5.51,14.38,5.51s10.25-1.84,14.33-5.51c4.07-3.67,6.11-8.98,6.11-15.93s-2.04-12.28-6.11-15.98c-4.08-3.71-8.85-5.56-14.33-5.56s-10.27,1.85-14.38,5.56Z"/>
  <path class="cls-2" d="m245.54,109.93h-45.26c-.34,0-.62-.28-.62-.62V39.51c0-.34.28-.62.62-.62h14.59c.34,0,.62.28.62.62v55.3h30.04c.34,0,.62.28.62.62v13.89c0,.34-.28.62-.62.62Z"/>
  <path class="cls-2" d="m313.15,104.37c-5.31,4.78-12.04,7.16-20.19,7.16s-14.88-2.39-20.19-7.16c-5.31-4.78-7.97-11.47-7.97-20.09v-44.78c0-.34.28-.62.62-.62h14.59c.34,0,.62.28.62.62v43.47c0,4.21,1.08,7.42,3.26,9.62,2.17,2.2,5.19,3.31,9.07,3.31s6.9-1.1,9.07-3.31c2.17-2.2,3.26-5.41,3.26-9.62v-43.47c0-.34.28-.62.62-.62h14.6c.34,0,.62.28.62.62v44.78c0,8.62-2.66,15.32-7.97,20.09Z"/>
  <path class="cls-2" d="m426.01,109.93h-14.67c-.24,0-.43-.19-.43-.43v-46.67l-18.43,46.82c-.06.17-.22.27-.4.27h-12.24c-.18,0-.34-.11-.4-.27l-18.43-46.22v46.06c0,.24-.19.43-.43.43h-14.17c-.24,0-.43-.19-.43-.43V39.32c0-.24.19-.43.43-.43h19.92c.18,0,.33.11.4.27l19.43,47.73,18.43-47.72c.06-.17.22-.28.4-.28h21.02c.24,0,.43.19.43.43v70.18c0,.24-.19.43-.43.43Z"/>
  <g>
    <path class="cls-1" d="m48.75,238.1h-9.38c-.12,0-.22-.1-.22-.22v-70.61c0-.12.1-.22.22-.22h42.75c.12,0,.22.1.22.22v8.68c0,.12-.1.22-.22.22h-33.15v22.85h30.04c.12,0,.22.1.22.22v8.78c0,.12-.1.22-.22.22h-30.04v29.64c0,.12-.1.22-.22.22Z"/>
    <path class="cls-1" d="m114.09,238.1h-9.38c-.18,0-.32-.14-.32-.32v-70.41c0-.18.14-.32.32-.32h9.38c.18,0,.32.14.32.32v70.41c0,.18-.14.32-.32.32Z"/>
    <path class="cls-1" d="m200.74,238.1h-9.99c-.05,0-.1-.03-.12-.07l-38.34-57.85v57.77c0,.08-.07.15-.15.15h-9.52c-.08,0-.15-.07-.15-.15v-70.75c0-.08.07-.15.15-.15h12.9c.05,0,.1.03.13.07l35.43,54.45v-54.36c0-.08.07-.15.15-.15h9.52c.08,0,.15.07.15.15v70.75c0,.08-.07.15-.15.15Z"/>
    <path class="cls-1" d="m278.06,237.89l-7.63-19.63h-31.47l-7.44,19.63c-.05.13-.17.21-.31.21h-9.81c-.23,0-.39-.24-.31-.45l28-70.39c.05-.13.17-.21.31-.21h10.88c.14,0,.26.08.31.21l28,70.39c.09.22-.07.45-.31.45h-9.91c-.14,0-.26-.08-.31-.21Zm-23.47-60.62l-12.13,31.87h24.45l-12.33-31.87Z"/>
    <path class="cls-1" d="m367.01,238.1h-9.88c-.07,0-.14-.04-.18-.1l-38.32-57.82v57.7c0,.12-.1.22-.22.22h-9.38c-.12,0-.22-.1-.22-.22v-70.61c0-.12.1-.22.22-.22h12.79c.07,0,.14.04.18.1l35.41,54.41v-54.29c0-.12.1-.22.22-.22h9.38c.12,0,.22.1.22.22v70.61c0,.12-.1.22-.22.22Z"/>
    <path class="cls-1" d="m426.05,239.61c-9.69,0-17.99-3.34-24.9-10.02-6.92-6.68-10.37-15.7-10.37-27.06,0-7.62,1.74-14.3,5.21-20.04,3.47-5.74,7.85-10,13.13-12.78,5.28-2.77,10.92-4.16,16.93-4.16,8.02,0,14.78,2.02,20.29,6.06,5.43,3.99,9.07,9.38,10.9,16.19.04.16-.05.34-.21.39l-8.51,2.99c-.17.06-.36-.04-.41-.22-1.36-5.18-3.9-9.2-7.63-12.04-3.81-2.91-8.62-4.36-14.43-4.36-6.95,0-12.89,2.46-17.84,7.37-4.94,4.91-7.42,11.77-7.42,20.59s2.47,15.7,7.42,20.64c4.94,4.94,10.89,7.42,17.84,7.42,5.81,0,10.66-1.55,14.53-4.66,3.79-3.04,6.47-7.06,8.02-12.06.05-.17.24-.27.41-.21l8.12,2.99c.16.06.25.23.2.4-1.96,6.75-5.66,12.18-11.09,16.29-5.51,4.18-12.24,6.26-20.19,6.26Z"/>
    <path class="cls-1" d="m490.18,238.1h-9.42c-.17,0-.3-.14-.3-.3v-70.44c0-.17.14-.3.3-.3h9.42c.17,0,.3.14.3.3v70.44c0,.17-.14.3-.3.3Z"/>
    <path class="cls-1" d="m567.7,237.99l-7.67-19.72h-31.47l-7.47,19.72c-.03.07-.1.12-.17.12h-10.12c-.13,0-.22-.13-.17-.26l28.11-70.67c.03-.07.1-.12.17-.12h11.07c.08,0,.15.05.17.12l28.11,70.67c.05.12-.04.26-.17.26h-10.22c-.08,0-.15-.05-.17-.12Zm-23.5-60.71l-12.13,31.87h24.45l-12.33-31.87Z"/>
    <path class="cls-1" d="m641.8,238.1h-43.39v-70.77c0-.15.12-.27.27-.27h9.27c.15,0,.27.12.27.27v61.56h33.57v9.22Z"/>
  </g>
</svg>